<svg xmlns="http://www.w3.org/2000/svg" viewBox="0 0 800 219.13"><defs><style>.cls-1{fill:#fff;}</style></defs><g id="レイヤー_2" data-name="レイヤー 2"><g id="レイヤー_1-2" data-name="レイヤー 1"><path class="cls-1" d="M4.43,182a.55.55,0,0,1,.62-.55h5.46c.37,0,.53.18.49.55L7.26,212.42c0,.22.07.33.29.33H24.93c.36,0,.53.18.48.55L24.84,218a.56.56,0,0,1-.62.54H.5c-.37,0-.54-.18-.49-.54Z"/><path class="cls-1" d="M52.66,182a.56.56,0,0,1,.62-.55H77c.37,0,.54.18.49.55l-.58,4.69a.56.56,0,0,1-.62.55H58.92a.32.32,0,0,0-.37.32l-1.12,9.06q0,.33.3.33H72.37c.37,0,.54.18.49.54l-.57,4.7a.57.57,0,0,1-.63.54H57a.34.34,0,0,0-.38.33l-1.15,9.38q0,.33.3.33H73.16c.37,0,.53.18.49.55L73.07,218a.56.56,0,0,1-.62.54H48.73c-.37,0-.54-.18-.49-.54Z"/><path class="cls-1" d="M113,182a.8.8,0,0,1,.79-.55h5.12a.61.61,0,0,1,.66.55L128,218q.1.54-.45.54h-5.46a.61.61,0,0,1-.66-.54l-1.62-7.2H105.53l-3.39,7.2a.81.81,0,0,1-.79.54H96q-.56,0-.33-.54Zm5.46,23.08-3.24-14.41h-.17l-6.83,14.41Z"/><path class="cls-1" d="M155.66,182a.57.57,0,0,1,.63-.55h13.55q9.93,0,11.66,8.24a13.28,13.28,0,0,1,.2,1.5c.05.53.07,1.17.07,1.94s-.05,1.7-.15,2.81-.25,2.46-.44,4.06-.39,3-.56,4.07-.35,2-.54,2.81-.37,1.41-.54,1.93-.37,1-.58,1.5q-3.74,8.25-13.67,8.24H151.73c-.37,0-.53-.18-.49-.54Zm2.83,30.44c0,.22.07.33.3.33h5.62a11.06,11.06,0,0,0,5.23-1.09,7.39,7.39,0,0,0,3.2-3.6,5.6,5.6,0,0,0,.39-1c.12-.38.25-.87.38-1.47s.27-1.35.42-2.26.3-2,.47-3.39.28-2.47.36-3.38.12-1.67.14-2.29,0-1.11,0-1.48a4.9,4.9,0,0,0-.17-.92,5.19,5.19,0,0,0-2.31-3.6,9.53,9.53,0,0,0-5-1.09h-5.63a.32.32,0,0,0-.37.32Z"/><path class="cls-1" d="M208.06,182a.57.57,0,0,1,.63-.55h5.45c.37,0,.54.18.49.55l-4.42,36a.55.55,0,0,1-.62.54h-5.46c-.37,0-.53-.18-.49-.54Z"/><path class="cls-1" d="M240.34,182a.57.57,0,0,1,.63-.55h5.12a.91.91,0,0,1,.88.55l12.28,25.59h.22L262.62,182a.55.55,0,0,1,.62-.55h4.84c.37,0,.54.18.49.55l-4.42,36a.55.55,0,0,1-.62.54h-5.07a.91.91,0,0,1-.88-.54l-12.34-25.54H245L241.88,218a.56.56,0,0,1-.62.54h-4.85c-.37,0-.53-.18-.49-.54Z"/><path class="cls-1" d="M290.8,210.19a15.41,15.41,0,0,1-.26-1.75,15.9,15.9,0,0,1-.06-2c0-.76.07-1.66.16-2.7s.23-2.28.41-3.74.35-2.7.51-3.74.33-1.93.5-2.7a18.88,18.88,0,0,1,.55-2c.2-.59.43-1.17.69-1.75a14.47,14.47,0,0,1,5.78-6.69,17,17,0,0,1,8.85-2.26,15.78,15.78,0,0,1,4.76.66,13.27,13.27,0,0,1,3.63,1.71,9,9,0,0,1,2.48,2.51,10.89,10.89,0,0,1,1.36,3,.58.58,0,0,1-.32.76l-4.92,2q-.53.17-.69-.27a8.21,8.21,0,0,0-2.64-3.41,7.5,7.5,0,0,0-4.43-1.17,8.23,8.23,0,0,0-4.77,1.28,8.5,8.5,0,0,0-2.95,3.57c-.15.33-.3.71-.45,1.15s-.28,1-.42,1.63-.27,1.45-.4,2.38-.28,2-.44,3.35-.29,2.43-.39,3.36-.15,1.72-.18,2.37,0,1.2,0,1.64a9.31,9.31,0,0,0,.17,1.14,6.12,6.12,0,0,0,2.07,3.58,6.89,6.89,0,0,0,4.46,1.28,9.28,9.28,0,0,0,4.6-1.17,7.45,7.45,0,0,0,3.15-3.47,13.79,13.79,0,0,0,.7-2,19.13,19.13,0,0,0,.5-2.76c0-.22-.06-.33-.29-.33H306.3q-.56,0-.48-.54l.53-4.37a.56.56,0,0,1,.62-.54H319.5c.37,0,.54.18.49.54l-.39,3.22q-.28,2.3-.78,4.5a20.34,20.34,0,0,1-1.11,3.63,14.72,14.72,0,0,1-5.76,6.74,16.22,16.22,0,0,1-8.72,2.37,14.13,14.13,0,0,1-8.3-2.26A10.31,10.31,0,0,1,290.8,210.19Z"/><path class="cls-1" d="M376.52,208a13.13,13.13,0,0,1,2.47-6.09,28.37,28.37,0,0,1,6.82-6.21c-.71-1.06-1.31-2-1.79-2.8a14.23,14.23,0,0,1-1.14-2.28,8.84,8.84,0,0,1-.54-2,8.72,8.72,0,0,1,0-2.1,9.55,9.55,0,0,1,1.24-3.69,10.62,10.62,0,0,1,2.54-2.93,11.56,11.56,0,0,1,3.5-1.92,12.43,12.43,0,0,1,4.08-.68,10.47,10.47,0,0,1,4,.74,8.07,8.07,0,0,1,2.93,2,7.51,7.51,0,0,1,1.67,2.9,8,8,0,0,1,.31,3.42,9.62,9.62,0,0,1-.68,2.58,9.9,9.9,0,0,1-1.51,2.42,19.77,19.77,0,0,1-2.51,2.51,41.76,41.76,0,0,1-3.7,2.78l5.42,8,4.69-4.79a.59.59,0,0,1,.86-.06l3,2.78c.29.24.3.51,0,.83l-5.53,5.73,1.23,1.78a2.86,2.86,0,0,0,1,1,2.66,2.66,0,0,0,1.28.3h.91c.4,0,.58.19.53.59l-.58,4.72a.61.61,0,0,1-.68.6h-2a9.43,9.43,0,0,1-1.79-.15,4.38,4.38,0,0,1-1.38-.51,5.43,5.43,0,0,1-1.21-.94,8.6,8.6,0,0,1-1.2-1.54l-.88-1.24a21.42,21.42,0,0,1-5.55,3.84,13.85,13.85,0,0,1-5.77,1.19,13.47,13.47,0,0,1-4.89-.8,7.85,7.85,0,0,1-5-5.68A11.86,11.86,0,0,1,376.52,208Zm6.26-.36a4.73,4.73,0,0,0,1,3.9,5,5,0,0,0,4,1.48,7,7,0,0,0,3.26-.8,18.58,18.58,0,0,0,3.89-2.92l-6.12-9.1a18.7,18.7,0,0,0-4.51,4A7.52,7.52,0,0,0,382.78,207.6Zm8.42-15.54c1.05-.71,1.9-1.34,2.56-1.89a16.14,16.14,0,0,0,1.54-1.48,5.22,5.22,0,0,0,.81-1.24,4.46,4.46,0,0,0,.33-1.24,3,3,0,0,0-.77-2.52,3.4,3.4,0,0,0-2.59-1,4.43,4.43,0,0,0-3,1,3.88,3.88,0,0,0-1.4,2.57,3.81,3.81,0,0,0,0,1,4.32,4.32,0,0,0,.32,1.09,11.65,11.65,0,0,0,.78,1.51C390.16,190.46,390.62,191.19,391.2,192.06Z"/><path class="cls-1" d="M460.57,209.55c-.11-.58-.2-1.15-.26-1.72a16.64,16.64,0,0,1-.07-2c0-.75.07-1.62.16-2.62s.22-2.25.4-3.74.35-2.69.51-3.71.33-1.9.49-2.64a18,18,0,0,1,.55-2c.2-.56.43-1.13.69-1.72a14.67,14.67,0,0,1,5.71-6.85,16.15,16.15,0,0,1,8.55-2.26,13,13,0,0,1,7.61,2.13,10.78,10.78,0,0,1,4.21,5.84.51.51,0,0,1-.36.65l-5,2.24q-.54.27-.69-.27a8.92,8.92,0,0,0-2.18-3.39,6,6,0,0,0-4.3-1.42,7.57,7.57,0,0,0-4.54,1.31,9.15,9.15,0,0,0-2.86,3.6c-.16.41-.31.81-.45,1.21a11.75,11.75,0,0,0-.42,1.55c-.13.64-.26,1.41-.39,2.32s-.28,2-.45,3.38-.3,2.52-.39,3.41-.14,1.66-.17,2.29a13,13,0,0,0,0,1.59c0,.42.1.81.16,1.17a6.43,6.43,0,0,0,2,3.6,6.17,6.17,0,0,0,4.21,1.31,7.31,7.31,0,0,0,4.66-1.42,12.27,12.27,0,0,0,3-3.38c.19-.36.45-.46.76-.27l4.46,2.23c.28.11.35.33.2.66a15.39,15.39,0,0,1-5.65,5.84,15.66,15.66,0,0,1-8.14,2.12,13.34,13.34,0,0,1-8-2.26A10.45,10.45,0,0,1,460.57,209.55Z"/><path class="cls-1" d="M521.43,218.66a13.81,13.81,0,0,1-8.13-2.26,10.31,10.31,0,0,1-4.13-6.68,15.41,15.41,0,0,1-.26-1.75,15.9,15.9,0,0,1-.06-2c0-.76.07-1.66.16-2.7s.23-2.28.41-3.74.35-2.7.51-3.74.33-1.93.5-2.7a19.8,19.8,0,0,1,.55-2q.3-.87.69-1.74a14.47,14.47,0,0,1,5.78-6.69,16.67,16.67,0,0,1,8.68-2.26,14,14,0,0,1,8.19,2.26,10.33,10.33,0,0,1,4.13,6.69,17.4,17.4,0,0,1,.26,1.74,16,16,0,0,1,.06,2c0,.77-.08,1.67-.17,2.7s-.22,2.29-.4,3.74-.35,2.7-.51,3.74-.33,1.94-.5,2.7a19,19,0,0,1-.56,2c-.2.58-.43,1.16-.68,1.75a14.51,14.51,0,0,1-5.78,6.68A16.69,16.69,0,0,1,521.43,218.66Zm.71-5.78a8.23,8.23,0,0,0,4.72-1.28,8.79,8.79,0,0,0,3.37-4.72c.12-.44.26-1,.39-1.64s.28-1.44.43-2.37.31-2.05.47-3.36.28-2.43.36-3.35.13-1.72.15-2.38,0-1.2,0-1.63a7.18,7.18,0,0,0-.13-1.15,6.11,6.11,0,0,0-2.07-3.57,6.74,6.74,0,0,0-4.41-1.29,8,8,0,0,0-4.69,1.29,8.58,8.58,0,0,0-2.92,3.57c-.15.33-.3.71-.45,1.15s-.28,1-.42,1.63-.27,1.45-.4,2.38-.28,2-.44,3.35-.29,2.43-.39,3.36-.15,1.72-.18,2.37,0,1.2,0,1.64a9.61,9.61,0,0,0,.17,1.14,6.19,6.19,0,0,0,2,3.58A6.71,6.71,0,0,0,522.14,212.88Z"/><path class="cls-1" d="M564,181.51a.55.55,0,0,1,.62-.55h4.95c.49,0,.78.18.89.55l7.6,22.86h.22l13.05-22.86a1.05,1.05,0,0,1,1-.55h4.9c.37,0,.53.18.49.55l-4.42,36a.57.57,0,0,1-.63.54h-4.84c-.37,0-.54-.18-.49-.54l2.78-22.7h-.22l-10.16,17.46a1.28,1.28,0,0,1-1.14.71h-3.23a1,1,0,0,1-1-.71l-5.87-17.46h-.22l-2.79,22.7a.55.55,0,0,1-.62.54h-4.84c-.38,0-.54-.18-.49-.54Z"/><path class="cls-1" d="M618.42,218.06c-.37,0-.53-.18-.49-.54l4.42-36A.57.57,0,0,1,623,181h14.19a13.58,13.58,0,0,1,4.94.85,9.94,9.94,0,0,1,3.66,2.34,8.92,8.92,0,0,1,2.12,3.63,11.12,11.12,0,0,1,.34,4.69,12.79,12.79,0,0,1-1.5,4.75,12.48,12.48,0,0,1-3,3.63,14,14,0,0,1-4.24,2.35,15.52,15.52,0,0,1-5.14.84h-7.85a.34.34,0,0,0-.38.33l-1.61,13.15a.56.56,0,0,1-.62.54Zm16.25-19.86a7.24,7.24,0,0,0,4.81-1.55,6.2,6.2,0,0,0,2.18-4.18,4.86,4.86,0,0,0-1.16-4.14,5.75,5.75,0,0,0-4.43-1.58h-7.46a.32.32,0,0,0-.37.32l-1.33,10.81c0,.21.07.32.3.32Z"/><path class="cls-1" d="M679.61,181.51a.8.8,0,0,1,.79-.55h5.12a.61.61,0,0,1,.66.55l8.38,36q.11.54-.45.54h-5.46a.61.61,0,0,1-.66-.54l-1.62-7.2H672.12l-3.39,7.2a.81.81,0,0,1-.79.54h-5.4q-.56,0-.33-.54Zm5.46,23.08-3.24-14.41h-.17l-6.83,14.41Z"/><path class="cls-1" d="M721.14,181.51a.55.55,0,0,1,.62-.55h5.12a.9.9,0,0,1,.88.55L740,207.1h.23l3.14-25.59A.55.55,0,0,1,744,181h4.84c.38,0,.54.18.49.55l-4.42,36a.55.55,0,0,1-.62.54h-5.07a.91.91,0,0,1-.88-.54L726,192h-.22l-3.14,25.54a.55.55,0,0,1-.62.54h-4.84c-.38,0-.54-.18-.49-.54Z"/><path class="cls-1" d="M778.39,218.06c-.37,0-.54-.18-.49-.54l1.79-14.62-8.34-21.39c-.1-.37.07-.55.51-.55h5.63a.67.67,0,0,1,.71.55l5.64,14.4H784l9.23-14.4a.93.93,0,0,1,.86-.55h5.44c.45,0,.58.18.38.55L786.26,202.9l-1.79,14.62a.57.57,0,0,1-.63.54Z"/><path class="cls-1" d="M368,30.41a.52.52,0,0,1,.59-.55H374a.46.46,0,0,1,.52.55l-2.18,31.07c0,.22.09.33.31.33H390c.37,0,.54.19.51.56l-.33,4.79a.54.54,0,0,1-.6.56H365.9c-.38,0-.55-.19-.52-.56Z"/><path class="cls-1" d="M389.55,73.72c-.14-.59-.26-1.17-.35-1.75a17.84,17.84,0,0,1-.17-2c0-.76,0-1.66,0-2.68s.1-2.29.21-3.81.21-2.75.32-3.79.22-1.94.35-2.7a17.79,17.79,0,0,1,.45-2c.17-.58.37-1.16.59-1.75a13.85,13.85,0,0,1,5.36-7,15.28,15.28,0,0,1,8.44-2.31,13.29,13.29,0,0,1,7.72,2.17,11.82,11.82,0,0,1,4.51,6,.48.48,0,0,1-.32.66L411.79,55a.43.43,0,0,1-.7-.28,9.5,9.5,0,0,0-2.35-3.45,6.14,6.14,0,0,0-4.38-1.45,7,7,0,0,0-4.46,1.34,8.51,8.51,0,0,0-2.68,3.67c-.14.41-.27.82-.39,1.22a12.51,12.51,0,0,0-.34,1.59q-.15,1-.27,2.37c-.09.92-.18,2.08-.27,3.45s-.17,2.57-.22,3.48-.06,1.69-.05,2.34a13.11,13.11,0,0,0,.11,1.61c.06.43.14.83.22,1.2a7,7,0,0,0,2.17,3.67,6.31,6.31,0,0,0,4.27,1.34A6.94,6.94,0,0,0,407,75.67a11.68,11.68,0,0,0,2.83-3.45c.17-.37.42-.46.74-.28l4.57,2.28c.29.12.37.34.23.67a14.42,14.42,0,0,1-5.34,6A14.77,14.77,0,0,1,402,83a13.7,13.7,0,0,1-8.11-2.31A11.46,11.46,0,0,1,389.55,73.72Z"/><path class="cls-1" d="M444.2,113h-113l7.9-113H452.11Zm-107.51-5.17H439.38l7.19-102.7H343.87Z"/></g></g></svg>