<svg xmlns="http://www.w3.org/2000/svg" viewBox="0 0 120 112.15"><defs><style>.cls-1{fill:#fff;}</style></defs><g id="レイヤー_2" data-name="レイヤー 2"><g id="レイヤー_1-2" data-name="レイヤー 1"><path class="cls-1" d="M36.51,30.17a.52.52,0,0,1,.59-.55h5.41c.37,0,.54.18.51.55L40.87,61a.28.28,0,0,0,.31.34H58.41c.37,0,.54.18.51.55l-.33,4.75a.53.53,0,0,1-.59.55H34.47c-.37,0-.54-.18-.51-.55Z"/><path class="cls-1" d="M57.94,73.14c-.14-.59-.26-1.17-.35-1.74a15.57,15.57,0,0,1-.16-2c0-.75,0-1.64,0-2.65s.1-2.27.21-3.78.2-2.73.32-3.76.22-1.92.35-2.68a16.15,16.15,0,0,1,.44-2c.17-.57.37-1.15.59-1.74a13.76,13.76,0,0,1,5.32-6.93A15.08,15.08,0,0,1,73,43.59a13.27,13.27,0,0,1,7.67,2.15,11.76,11.76,0,0,1,4.47,5.91.49.49,0,0,1-.32.67L80,54.58c-.35.19-.58.09-.7-.28A9.64,9.64,0,0,0,77,50.88a6.11,6.11,0,0,0-4.35-1.44,7.09,7.09,0,0,0-4.43,1.33,8.39,8.39,0,0,0-2.65,3.65c-.14.4-.27.81-.39,1.21a12.52,12.52,0,0,0-.33,1.58c-.1.64-.19,1.42-.28,2.34s-.17,2.06-.27,3.43-.17,2.55-.21,3.45-.06,1.68,0,2.32a13.07,13.07,0,0,0,.11,1.6c.06.42.13.82.22,1.19a7,7,0,0,0,2.15,3.64,6.23,6.23,0,0,0,4.24,1.33,6.89,6.89,0,0,0,4.55-1.44,11.78,11.78,0,0,0,2.81-3.42c.17-.37.41-.46.73-.28l4.54,2.27c.28.11.36.33.23.66a14.38,14.38,0,0,1-5.3,5.91,14.66,14.66,0,0,1-8,2.15,13.56,13.56,0,0,1-8-2.29A11.34,11.34,0,0,1,57.94,73.14Z"/><path class="cls-1" d="M112.16,112.15H0L7.84,0H120ZM5.5,107H107.38L114.5,5.13H12.62Z"/></g></g></svg>